# File created by Blade
# Date/Time:  Tue Sep 30 19:15:05 2014
# Frame Rate: 120.000 fps
#------------------------------------------------------
:FULLY-SPECIFIED
:DEGREES
2064
root -0.339199 33.188532 -3.799192 19.951128 -37.531455 -19.975492
Spine -3.168771 4.363638 17.118237
Head -7.689619 -13.246482 11.161447
LeftShoulder 19.533991 8.799716 18.351027
LeftArm 7.556312 -25.893383 -75.512226
LeftForeArm -117.999926 2.203528 -1.171181
LeftHand 0.000024 29.387761 9.284507
LeftHandThumb1 30.357831 13.997178 22.438692
RightShoulder -12.864158 -20.946656 -23.476772
RightArm -7.271348 -14.592517 85.562575
RightForeArm 65.887250 -34.602543 14.261257
RightHand 0.000038 -13.259574 13.474526
RightHandThumb1 30.482666 -12.916435 -20.793814
LeftUpLeg -17.530164 21.169836 2.243369
LeftLeg 15.439500 -0.000000 0.000000
LeftFoot -17.362154 31.243528 1.336527
LeftToeBase 2.652400 -0.000000 -0.000000
RightUpLeg -87.642718 -22.248474 4.160517
RightLeg 115.252998 -0.000000 -0.000000
RightFoot 26.712018 -19.703467 -7.491042
RightToeBase 12.141800 -0.000000 -0.000000
2065
root -0.319499 33.182432 -3.741293 20.083577 -38.293784 -20.158604
Spine -3.077873 4.940072 16.961178
Head -7.468858 -13.235952 11.015550
LeftShoulder 19.790210 9.067733 18.318189
LeftArm 7.200479 -25.589614 -75.719304
LeftForeArm -118.341622 2.571722 -1.386404
LeftHand -0.000067 29.375676 8.930784
LeftHandThumb1 30.357831 13.997178 22.438692
RightShoulder -12.859133 -20.955297 -23.577406
RightArm -7.479334 -14.665286 85.325380
RightForeArm 65.796558 -34.995889 14.455572
RightHand 0.000042 -13.248976 13.621737
RightHandThumb1 30.482666 -12.916435 -20.793814
LeftUpLeg -17.345970 21.645442 2.110152
LeftLeg 15.401300 -0.000000 0.000000
LeftFoot -17.489172 31.460454 1.234438
LeftToeBase 2.561500 -0.000000 -0.000000
RightUpLeg -88.113603 -22.767314 4.731984
RightLeg 115.108299 0.000000 0.000000
RightFoot 27.081513 -20.052291 -7.356614
RightToeBase 12.113200 0.000000 0.000000
2066
root -0.299799 33.176634 -3.681993 20.229367 -39.020428 -20.308081
Spine -3.057749 5.512744 16.791423
Head -7.234396 -13.258227 10.849523
LeftShoulder 20.027410 9.305717 18.282295
LeftArm 6.822787 -25.266489 -75.872435
LeftForeArm -118.686504 2.645411 -1.446689
LeftHand -0.000062 29.319269 8.592767
LeftHandThumb1 30.357831 13.997178 22.438692
RightShoulder -12.875573 -20.986432 -23.718698
RightArm -7.672383 -14.811494 85.131716
RightForeArm 65.730691 -35.243386 14.583685
RightHand -0.000023 -13.403157 13.625788
RightHandThumb1 30.482666 -12.916435 -20.793814
LeftUpLeg -17.122808 21.988891 1.992827
LeftLeg 15.248100 -0.000000 -0.000000
LeftFoot -17.429562 31.625467 1.451825
LeftToeBase 2.526400 -0.000000 -0.000000
RightUpLeg -88.613342 -23.320448 5.291816
RightLeg 114.973297 -0.000000 -0.000000
RightFoot 27.228760 -20.369424 -7.106682
RightToeBase 12.299800 -0.000000 -0.000000
2067
root -0.272499 33.168432 -3.615393 20.287791 -39.744205 -20.342729
Spine -3.032438 6.071543 16.528132
Head -7.006030 -13.302767 10.710421
LeftShoulder 20.252269 9.499952 18.225888
LeftArm 6.423106 -24.975337 -75.898299
LeftForeArm -119.058126 2.492972 -1.384479
LeftHand 0.000003 29.283058 8.072175
LeftHandThumb1 30.357831 13.997178 22.438692
RightShoulder -12.881236 -21.019679 -23.811682
RightArm -7.920373 -14.937698 84.910634
RightForeArm 65.623760 -35.524351 14.750373
RightHand -0.000035 -13.516747 13.587183
RightHandThumb1 30.482666 -12.916435 -20.793814
LeftUpLeg -16.832132 22.131217 1.802779
LeftLeg 14.971300 -0.000000 -0.000000
LeftFoot -17.381363 31.990016 1.449156
LeftToeBase 2.324700 -0.000000 -0.000000
RightUpLeg -89.129824 -23.936475 5.770618
RightLeg 114.849998 -0.000000 -0.000000
RightFoot 27.233411 -20.585317 -6.850779
RightToeBase 12.532900 -0.000000 -0.000000
2068
root -0.247400 33.159434 -3.545893 20.359189 -40.457481 -20.399072
Spine -3.024185 6.585664 16.303853
Head -6.774897 -13.323076 10.544018
LeftShoulder 20.554029 9.761884 18.195264
LeftArm 6.104102 -24.747001 -75.890150
LeftForeArm -119.397501 2.407847 -1.355961
LeftHand -0.000040 29.251084 7.921999
LeftHandThumb1 30.357831 13.997178 22.438692
RightShoulder -12.871630 -21.010639 -23.923278
RightArm -8.223269 -15.041978 84.710517
RightForeArm 65.477922 -35.758137 14.926911
RightHand 0.000007 -13.735408 13.675657
RightHandThumb1 30.482666 -12.916435 -20.793814
LeftUpLeg -16.509251 22.024843 1.682007
LeftLeg 14.732900 -0.000000 0.000000
LeftFoot -17.320176 32.554644 1.553877
LeftToeBase 2.290000 -0.000000 -0.000000
RightUpLeg -89.670264 -24.519483 6.299146
RightLeg 114.719902 -0.000000 -0.000000
RightFoot 27.243414 -20.857537 -6.656469
RightToeBase 12.825200 0.000000 0.000000
2069
root -0.225100 33.151633 -3.478293 20.429242 -41.181918 -20.457349
Spine -3.017938 7.107913 16.069337
Head -6.529717 -13.328124 10.378306
LeftShoulder 20.786531 9.989873 18.109666
LeftArm 5.715971 -24.479394 -75.718567
LeftForeArm -119.739995 2.420207 -1.382023
LeftHand 0.000038 29.111364 7.169665
LeftHandThumb1 30.357831 13.997178 22.438692
RightShoulder -12.886887 -20.973608 -24.011789
RightArm -8.544214 -15.176315 84.518737
RightForeArm 65.306471 -35.831673 15.065592
RightHand 0.000023 -13.644663 13.668154
RightHandThumb1 30.482666 -12.916435 -20.793814
LeftUpLeg -16.200078 22.111159 1.518881
LeftLeg 14.485100 0.000000 0.000000
LeftFoot -17.215598 32.897953 1.777125
LeftToeBase 2.312200 0.000000 0.000000
RightUpLeg -90.199713 -25.038337 6.807357
RightLeg 114.602402 -0.000000 0.000000
RightFoot 27.088930 -21.285442 -6.212163
RightToeBase 13.109800 0.000000 0.000000
2070
root -0.203900 33.144732 -3.410193 20.518144 -41.871833 -20.554861
Spine -3.006609 7.605465 15.891322
Head -6.308567 -13.360648 10.215528
LeftShoulder 21.082128 10.232723 18.068272
LeftArm 5.441521 -24.282853 -75.635844
LeftForeArm -120.065059 2.415277 -1.397429
LeftHand -0.000022 29.089947 7.155132
LeftHandThumb1 30.357831 13.997178 22.438692
RightShoulder -12.926363 -20.939260 -24.119600
RightArm -8.825174 -15.327053 84.311819
RightForeArm 65.080262 -35.776514 15.195988
RightHand -0.000001 -13.672348 13.440847
RightHandThumb1 30.482666 -12.916435 -20.793814
LeftUpLeg -15.882508 22.143885 1.412929
LeftLeg 14.241800 -0.000000 -0.000000
LeftFoot -17.153072 33.206178 1.891151
LeftToeBase 2.192800 0.000000 0.000000
RightUpLeg -90.733760 -25.590953 7.356329
RightLeg 114.465302 -0.000000 -0.000000
RightFoot 27.058396 -21.591405 -5.878426
RightToeBase 13.441200 0.000000 0.000000
2071
root -0.187000 33.137434 -3.338693 20.606832 -42.582067 -20.641727
Spine -3.032845 8.129579 15.677852
Head -6.055873 -13.413187 10.078698
LeftShoulder 21.461813 10.512574 18.042662
LeftArm 5.217627 -24.230118 -75.554113
LeftForeArm -120.332243 2.438017 -1.425778
LeftHand 0.000062 29.193190 7.209732
LeftHandThumb1 30.357831 13.997178 22.438692
RightShoulder -12.919182 -20.893071 -24.175512
RightArm -9.073506 -15.458443 84.063413
RightForeArm 64.851591 -35.724222 15.329008
RightHand -0.000022 -13.869028 13.321453
RightHandThumb1 30.482666 -12.916435 -20.793814
LeftUpLeg -15.539814 22.230261 1.300117
LeftLeg 13.967100 -0.000000 -0.000000
LeftFoot -17.211835 33.429695 1.714171
LeftToeBase 2.010200 -0.000000 -0.000000
RightUpLeg -91.266255 -26.093270 7.868663
RightLeg 114.347000 0.000000 0.000000
RightFoot 27.151776 -21.701756 -5.734340
RightToeBase 13.387900 -0.000000 -0.000000
